<mxfile host="app.diagrams.net" modified="2022-06-10T03:28:31.098Z" agent="5.0 (Macintosh; Intel Mac OS X 10_15_7) AppleWebKit/537.36 (KHTML, like Gecko) Chrome/100.0.4896.127 Safari/537.36" etag="ZIKbPu__r2Hb-vFxUo0m" version="15.3.2" type="github">
  <diagram id="ybV2quVBh41Vqaf5F448" name="Page-1">
    <mxGraphModel dx="815" dy="442" grid="1" gridSize="10" guides="1" tooltips="1" connect="1" arrows="1" fold="1" page="1" pageScale="1" pageWidth="827" pageHeight="1169" math="0" shadow="0">
      <root>
        <mxCell id="0" />
        <mxCell id="1" parent="0" />
        <mxCell id="3wPsEf4ZWY97SY9eJp6e-2" value="" style="rounded=1;whiteSpace=wrap;html=1;strokeColor=#8FECFF;" vertex="1" parent="1">
          <mxGeometry x="470" y="100" width="310" height="320" as="geometry" />
        </mxCell>
        <mxCell id="3wPsEf4ZWY97SY9eJp6e-3" value="" style="sketch=0;aspect=fixed;html=1;points=[];align=center;image;fontSize=12;image=img/lib/mscae/Docker.svg;" vertex="1" parent="1">
          <mxGeometry x="500" y="340" width="85.37" height="70" as="geometry" />
        </mxCell>
        <mxCell id="3wPsEf4ZWY97SY9eJp6e-14" style="edgeStyle=orthogonalEdgeStyle;rounded=0;orthogonalLoop=1;jettySize=auto;html=1;exitX=0.5;exitY=1;exitDx=0;exitDy=0;" edge="1" parent="1" source="3wPsEf4ZWY97SY9eJp6e-5" target="3wPsEf4ZWY97SY9eJp6e-2">
          <mxGeometry relative="1" as="geometry" />
        </mxCell>
        <mxCell id="3wPsEf4ZWY97SY9eJp6e-5" value="Browser" style="rounded=1;whiteSpace=wrap;html=1;" vertex="1" parent="1">
          <mxGeometry x="250" y="160" width="120" height="60" as="geometry" />
        </mxCell>
        <mxCell id="3wPsEf4ZWY97SY9eJp6e-6" value="&lt;div style=&quot;text-align: justify ; font-size: 11px&quot;&gt;&lt;font style=&quot;font-size: 11px&quot;&gt;ports:&lt;/font&gt;&lt;/div&gt;&lt;div style=&quot;text-align: justify ; font-size: 11px&quot;&gt;&lt;span&gt;&lt;font style=&quot;font-size: 11px&quot;&gt;&amp;nbsp; - &quot;5001:5000&quot;&lt;/font&gt;&lt;/span&gt;&lt;/div&gt;&lt;div style=&quot;text-align: justify ; font-size: 11px&quot;&gt;&lt;font style=&quot;font-size: 11px&quot;&gt;command: gunicorn main:app -b 0.0.0.0:5000&lt;/font&gt;&lt;/div&gt;" style="rounded=0;whiteSpace=wrap;html=1;align=left;" vertex="1" parent="1">
          <mxGeometry x="210" y="290" width="230" height="90" as="geometry" />
        </mxCell>
        <mxCell id="3wPsEf4ZWY97SY9eJp6e-8" value="" style="rounded=0;whiteSpace=wrap;html=1;" vertex="1" parent="1">
          <mxGeometry x="510" y="230" width="250" height="60" as="geometry" />
        </mxCell>
        <mxCell id="3wPsEf4ZWY97SY9eJp6e-9" value="" style="shape=image;imageAspect=0;aspect=fixed;verticalLabelPosition=bottom;verticalAlign=top;image=https://upload.wikimedia.org/wikipedia/commons/thumb/0/00/Gunicorn_logo_2010.svg/2560px-Gunicorn_logo_2010.svg.png;" vertex="1" parent="1">
          <mxGeometry x="524.65" y="238" width="200.7" height="44" as="geometry" />
        </mxCell>
        <mxCell id="3wPsEf4ZWY97SY9eJp6e-13" value="" style="group" vertex="1" connectable="0" parent="1">
          <mxGeometry x="540" y="160" width="190" height="70" as="geometry" />
        </mxCell>
        <mxCell id="3wPsEf4ZWY97SY9eJp6e-11" value="" style="rounded=0;whiteSpace=wrap;html=1;" vertex="1" parent="3wPsEf4ZWY97SY9eJp6e-13">
          <mxGeometry width="190" height="70" as="geometry" />
        </mxCell>
        <mxCell id="3wPsEf4ZWY97SY9eJp6e-10" value="" style="shape=image;imageAspect=0;aspect=fixed;verticalLabelPosition=bottom;verticalAlign=top;image=https://msiz07-flask-docs-ja.readthedocs.io/ja/latest/_images/flask-logo.png;" vertex="1" parent="3wPsEf4ZWY97SY9eJp6e-13">
          <mxGeometry x="18.350000000000023" y="5" width="153.29" height="60" as="geometry" />
        </mxCell>
        <mxCell id="3wPsEf4ZWY97SY9eJp6e-15" value="port:5001" style="rounded=0;whiteSpace=wrap;html=1;strokeColor=none;" vertex="1" parent="1">
          <mxGeometry x="391" y="239" width="70" height="20" as="geometry" />
        </mxCell>
        <mxCell id="3wPsEf4ZWY97SY9eJp6e-17" value="port:5000" style="rounded=0;whiteSpace=wrap;html=1;strokeColor=none;" vertex="1" parent="1">
          <mxGeometry x="481" y="266" width="30" height="10" as="geometry" />
        </mxCell>
        <mxCell id="3wPsEf4ZWY97SY9eJp6e-16" style="edgeStyle=orthogonalEdgeStyle;rounded=0;orthogonalLoop=1;jettySize=auto;html=1;exitX=0;exitY=0.5;exitDx=0;exitDy=0;entryX=0;entryY=0.5;entryDx=0;entryDy=0;" edge="1" parent="1" source="3wPsEf4ZWY97SY9eJp6e-2" target="3wPsEf4ZWY97SY9eJp6e-8">
          <mxGeometry relative="1" as="geometry">
            <Array as="points">
              <mxPoint x="470" y="260" />
            </Array>
          </mxGeometry>
        </mxCell>
      </root>
    </mxGraphModel>
  </diagram>
</mxfile>
